<?xml version="1.0" encoding="utf-8"?><!DOCTYPE svg PUBLIC "-//W3C//DTD SVG 1.1//EN" "http://www.w3.org/Graphics/SVG/1.1/DTD/svg11.dtd"><svg version="1.1" xmlns="http://www.w3.org/2000/svg" xmlns:xlink="http://www.w3.org/1999/xlink" x="0px" y="0px" width="1285px" height="103px" viewBox="-4.999 -5 1285 103" enable-background="new -4.999 -5 1285 103"
	 xml:space="preserve"><path d="M82.505,41.851c18.652-0.054,33.677-7.19,33.677-20.574C116.182,7.122,97.943,0,74.414,0H0v2.051h22.202v86.335H0v2.031
	h82.987c27.905,0,41.769-11.854,41.769-23.976C124.756,49.93,104.751,41.787,82.505,41.851z M47.92,2.051h17.938
	c17.324,0,27.345,4.326,27.345,19.375c0,15.691-10.348,19.771-22.931,19.771H47.92V2.051z M70.272,88.386H47.92V43.105h21.522
	c17.412,0,30.143,2.834,30.143,23.245C99.585,83.055,84.575,88.386,70.272,88.386z"/><path d="M569.893,41.851c18.657-0.054,33.684-7.19,33.684-20.574C603.574,7.122,585.332,0,561.807,0h-74.419v2.051h22.207v86.335
	h-22.207v2.031h82.988c27.905,0,41.768-11.854,41.768-23.976C612.144,49.93,592.144,41.787,569.893,41.851z M535.308,2.051h17.939
	c17.324,0,27.344,4.326,27.344,19.375c0,15.691-10.342,19.771-22.93,19.771h-22.354L535.308,2.051L535.308,2.051z M557.661,88.386
	h-22.354V43.105h21.523c17.412,0,30.146,2.834,30.146,23.245C586.979,83.055,571.963,88.386,557.661,88.386z"/><path d="M248.892,2.051h22.936v57.928c0,20.84-19.487,28.485-40.317,28.485c-16.685,0-34.365-5.522-34.365-26.953V2.051h22.389V0
	H149.59v2.051h22.017v59.46c0,25.304,33.683,31.079,55.343,31.079c26.221,0,47.793-9.648,47.793-32.611V2.051h24.019V0h-49.868
	L248.892,2.051L248.892,2.051z"/><path d="M455.337,89.529c-6.567,0-10.762-3.442-10.762-9.951V68.104c0-12.754-11.313-24.742-39.58-24.742
	c19.517,0,34.104-9.312,34.104-21.172C439.102,9.695,422.866,0,396.416,0h-76.982v2.051h22.202v86.335h-22.202v2.031h68.662v-2.031
	h-20.742V44.38h25.42c14.762,0,25.532,4.915,25.532,16.39v6.215c0,18.979,17.517,25.605,32.109,25.605
	c7.837,0,12.764-1.781,16.592-4.468L465.464,87C463.086,88.904,460.264,89.529,455.337,89.529z M387.134,42.341h-19.78V2.051h18.862
	c18.413,0,27.168,6.584,27.168,20.649C413.384,37.17,402.144,42.341,387.134,42.341z"/><path d="M940.852,89.529c-6.563,0-10.762-3.442-10.762-9.951V68.104c0-12.754-11.299-24.742-39.57-24.742
	c19.514,0,34.111-9.312,34.111-21.172c0-12.495-16.24-22.19-42.686-22.19h-76.992v2.051h22.197v86.335h-22.197v2.031h68.662v-2.031
	h-20.742V44.38h25.42c14.756,0,25.537,4.915,25.537,16.39v6.215c0,18.979,17.51,25.605,32.1,25.605
	c7.842,0,12.766-1.781,16.604-4.468L950.979,87C948.616,88.904,945.774,89.529,940.852,89.529z M872.649,42.341h-19.775V2.051
	h18.867c18.408,0,27.158,6.584,27.158,20.649C898.899,37.17,887.659,42.341,872.649,42.341z"/><path d="M1109.064,89.529c-6.563,0-10.763-3.442-10.763-9.951V68.104c0-12.754-11.309-24.742-39.58-24.742
	c19.514,0,34.111-9.312,34.111-21.172c0-12.495-16.24-22.19-42.687-22.19h-76.981v2.051h22.197v86.335h-22.197v2.031h68.662v-2.031
	h-20.742V44.38h25.42c14.756,0,25.527,4.915,25.527,16.39v6.215c0,18.979,17.52,25.605,32.107,25.605
	c7.844,0,12.766-1.781,16.604-4.468L1119.192,87C1116.819,88.904,1113.997,89.529,1109.064,89.529z M1040.862,42.341h-19.775V2.051
	h18.867c18.408,0,27.158,6.584,27.158,20.649C1067.112,37.17,1055.872,42.341,1040.862,42.341z"/><path d="M725.676,88.386h-36.023V45.022h13.484c16.582,0,22.617,9.946,22.617,18.619h2.734v-39.52h-2.734
	c0,8.799-6.035,18.86-22.617,18.86h-13.484V2.051h35.479c22.441,0,32.646,13.889,32.646,25.75h2.92V0.381L759.963,0H641.721v2.051
	h22.395v86.335h-22.395v2.031h127.734l0.547-0.376V60.07h-2.734C767.268,73.206,755.042,88.386,725.676,88.386z"/><polygon points="1227.61,0 1227.61,2.051 1251.985,2.051 1214.495,47.059 1175.09,2.051 1199.377,2.051 1199.377,0 1123.967,0 
	1123.967,2.051 1147.532,2.051 1189.875,51.014 1189.875,88.386 1167.493,88.386 1167.493,90.417 1237.424,90.417 1237.424,88.386 
	1215.042,88.386 1215.042,50.505 1255.608,2.051 1275.491,2.051 1275.491,0 "/></svg>