<?xml version="1.0" encoding="UTF-8" standalone="no"?>
<!-- Created with Inkscape (http://www.inkscape.org/) -->
<svg
   xmlns:svg="http://www.w3.org/2000/svg"
   xmlns="http://www.w3.org/2000/svg"
   version="1.0"
   width="800"
   height="97"
   id="svg2"
   xml:space="preserve"><defs
     id="defs5" /><g
     transform="matrix(1.25,0,0,-1.25,-386.73125,784.70936)"
     id="g11"><path
       d="M 373.06543,625.80874 L 373.17602,605.86451 C 372.91182,605.67403 371.71983,605.53272 371.6584,605.6986 C 366.92118,617.44027 363.13018,623.55379 348.93082,623.55379 L 347.29031,623.55379 L 347.29031,561.69965 C 347.29031,558.60295 347.64053,556.43403 349.21961,554.984 C 350.30713,553.98248 354.30703,553.51551 357.5512,553.51551 C 357.72939,553.51551 357.74783,551.77055 357.5512,551.77055 L 326.82382,551.77055 C 326.62721,551.77055 326.65178,553.51551 326.82382,553.51551 C 330.06183,553.51551 334.06789,553.98248 335.14927,554.984 C 336.7345,556.43403 337.08471,558.60295 337.08471,561.69965 L 337.08471,623.55379 L 335.4442,623.55379 C 321.25099,623.55379 317.45385,617.44027 312.71662,605.6986 C 312.64904,605.53272 311.4632,605.67403 311.199,605.86451 L 311.3096,625.80874 L 373.06543,625.80874"
       id="path39"
       style="fill:#000000;fill-opacity:1;fill-rule:nonzero;stroke:none" /><path
       d="M 391.48589,560.98078 C 391.48589,558.13598 391.13566,555.8749 389.70405,554.67678 C 388.50593,553.67526 386.02979,553.40492 382.46613,553.40492 C 382.27565,553.40492 382.25108,551.77055 382.46613,551.77055 L 410.30571,551.77055 C 410.52076,551.77055 410.50232,553.40492 410.30571,553.40492 C 406.74204,553.40492 404.26591,553.67526 403.06779,554.67678 C 401.63003,555.8749 401.28595,558.13598 401.28595,560.98078 L 401.28595,600.75864 C 401.28595,603.60956 401.63003,605.86451 403.06779,607.06263 C 404.26591,608.06415 406.74204,608.32835 410.30571,608.32835 C 410.50232,608.32835 410.52076,609.96886 410.30571,609.96886 L 382.46613,609.96886 C 382.25108,609.96886 382.27565,608.32835 382.46613,608.32835 C 386.02979,608.32835 388.50593,608.06415 389.70405,607.06263 C 391.13566,605.86451 391.48589,603.60956 391.48589,600.75864 L 391.48589,560.98078"
       id="path41"
       style="fill:#000000;fill-opacity:1;fill-rule:nonzero;stroke:none" /><path
       d="M 465.24757,609.96886 L 422.0658,609.96886 C 421.86919,609.96886 421.88762,608.32835 422.0658,608.32835 C 425.30383,608.32835 427.63863,608.06415 428.72616,607.06263 C 430.02875,605.86451 430.34825,603.60956 430.34825,600.75864 L 430.34825,560.98078 C 430.34825,558.13598 430.02875,555.8749 428.72616,554.67678 C 427.63863,553.67526 425.30383,553.40492 422.0658,553.40492 C 421.88762,553.40492 421.86919,551.77055 422.0658,551.77055 L 449.70263,551.77055 C 449.91153,551.77055 449.8931,553.40492 449.70263,553.40492 C 446.13283,553.40492 443.12214,553.67526 441.93015,554.67678 C 440.49241,555.8749 440.14218,558.13598 440.14218,560.98078 L 440.14218,579.87434 L 444.57833,579.87434 C 449.05749,579.87434 451.22025,579.1739 453.10654,577.73614 C 454.67333,576.53802 455.91446,574.06188 455.91446,571.70863 C 455.91446,571.51816 456.79308,571.4813 457.30306,571.70863 L 457.30306,590.23969 C 456.79308,590.45474 455.91446,590.43016 455.91446,590.23969 C 455.91446,587.88029 454.67333,585.18297 453.10654,583.98484 C 451.22025,582.54709 449.05749,581.76677 444.57833,581.76677 L 440.14218,581.76677 L 440.14218,607.8491 L 445.24804,607.8491 C 458.43975,607.8491 462.42736,601.56967 464.41195,594.27032 C 464.45497,594.10441 465.61009,594.25802 465.56708,594.44236 L 465.24757,609.96886"
       id="path43"
       style="fill:#000000;fill-opacity:1;fill-rule:nonzero;stroke:none" /><path
       d="M 517.77474,609.96886 L 474.59297,609.96886 C 474.39636,609.96886 474.41479,608.32835 474.59297,608.32835 C 477.831,608.32835 480.1658,608.06415 481.25334,607.06263 C 482.56206,605.86451 482.87542,603.60956 482.87542,600.75864 L 482.87542,560.98078 C 482.87542,558.13598 482.56206,555.8749 481.25334,554.67678 C 480.1658,553.67526 477.831,553.40492 474.59297,553.40492 C 474.41479,553.40492 474.39636,551.77055 474.59297,551.77055 L 502.22365,551.77055 C 502.4387,551.77055 502.42028,553.40492 502.22365,553.40492 C 498.66,553.40492 495.65546,553.67526 494.45733,554.67678 C 493.01958,555.8749 492.66935,558.13598 492.66935,560.98078 L 492.66935,579.87434 L 497.1055,579.87434 C 501.58466,579.87434 503.74742,579.1739 505.63371,577.73614 C 507.20664,576.53802 508.44163,574.06188 508.44163,571.70863 C 508.44163,571.51816 509.32027,571.4813 509.83023,571.70863 L 509.83023,590.23969 C 509.32027,590.45474 508.44163,590.43016 508.44163,590.23969 C 508.44163,587.88029 507.20664,585.18297 505.63371,583.98484 C 503.74742,582.54709 501.58466,581.76677 497.1055,581.76677 L 492.66935,581.76677 L 492.66935,607.8491 L 497.77521,607.8491 C 510.96692,607.8491 514.95453,601.56967 516.93299,594.27032 C 516.98214,594.10441 518.13726,594.25802 518.09425,594.44236 L 517.77474,609.96886"
       id="path45"
       style="fill:#000000;fill-opacity:1;fill-rule:nonzero;stroke:none" /><path
       d="M 535.73438,574.43667 L 544.55751,598.61429 L 553.46667,574.43667 L 535.73438,574.43667 M 576.58134,553.33119 C 571.99773,553.92718 570.44323,555.49396 568.33576,560.98078 L 549.65111,611.40047 C 549.65111,611.61553 546.79402,611.59094 546.79402,611.40047 L 528.50874,562.0683 C 526.03876,555.63528 524.08488,554.48631 518.50591,553.33119 C 518.34001,553.30047 518.3093,551.77055 518.50591,551.77055 L 536.23821,551.77055 C 536.43483,551.77055 536.41639,553.32505 536.23821,553.33119 C 531.05246,553.71828 528.83439,555.68444 531.28595,562.0683 L 535.02164,572.32306 L 554.27158,572.32306 L 558.27762,561.77339 C 560.37281,556.32343 558.43124,553.75514 552.85839,553.33119 C 552.68635,553.32505 552.66793,551.77055 552.85839,551.77055 L 576.58134,551.77055 C 576.77795,551.77055 576.75338,553.31276 576.58134,553.33119"
       id="path47"
       style="fill:#000000;fill-opacity:1;fill-rule:nonzero;stroke:none" /><path
       d="M 639.54144,609.96886 L 619.10567,609.96886 C 618.90906,609.96886 618.93363,608.34678 619.10567,608.32835 C 623.50495,607.94126 625.6493,607.54188 626.79213,605.58187 C 628.10085,603.33307 628.69684,599.51749 628.69684,594.46693 L 628.69684,566.86083 L 595.78211,609.96886 L 579.00217,609.96886 C 578.79941,609.96886 578.82398,608.32835 579.00217,608.32835 C 585.11569,608.32835 588.10794,604.91215 588.10794,599.91687 L 588.10794,566.97142 C 588.10794,561.92085 587.78844,558.40634 586.47972,556.16368 C 585.34918,554.2221 584.13262,553.76743 580.02827,553.40492 C 579.85623,553.39877 579.83164,551.77055 580.02827,551.77055 L 600.26126,551.77055 C 600.45789,551.77055 600.4333,553.39877 600.26126,553.40492 C 595.86199,553.8043 593.72378,554.19138 592.57481,556.16368 C 591.27223,558.40634 590.66395,561.92085 590.66395,566.97142 L 590.66395,600.55588 L 629.11465,551.21757 C 629.45259,550.78133 631.25899,550.81819 631.25899,551.21757 L 631.25899,594.46693 C 631.25899,599.51749 631.57849,603.33307 632.88723,605.58187 C 634.03005,607.54188 635.14831,607.94126 639.54144,608.32835 C 639.71963,608.34678 639.74421,609.96886 639.54144,609.96886"
       id="path49"
       style="fill:#000000;fill-opacity:1;fill-rule:nonzero;stroke:none" /><path
       d="M 698.80885,609.96886 L 681.06426,609.96886 C 680.87994,609.96886 680.88609,608.34064 681.05813,608.32835 C 686.48963,608.14402 688.33906,606.17172 686.39747,602.31928 L 674.76642,580.63009 L 661.95565,602.67564 C 660.0448,606.36219 662.18914,608.32835 667.50391,608.32835 C 667.67595,608.32835 667.68824,609.96886 667.49162,609.96886 L 643.18498,609.96886 C 642.98837,609.96886 643.01908,608.34678 643.19112,608.32835 C 647.76859,608.00885 649.13875,606.85988 651.01889,603.22247 L 666.21976,576.61174 L 666.21976,560.98078 C 666.21976,558.13598 665.86955,555.8749 664.56696,554.67678 C 663.47329,553.67526 660.91728,553.40492 657.67312,553.40492 C 657.50108,553.40492 657.48264,551.77055 657.67312,551.77055 L 684.57263,551.77055 C 684.76311,551.77055 684.74467,553.40492 684.57263,553.40492 C 681.32233,553.40492 678.76632,553.67526 677.67264,554.67678 C 676.3762,555.8749 676.01984,558.13598 676.01984,560.98078 L 676.01984,578.33213 L 689.43888,602.48517 C 691.67538,606.66326 694.09007,607.92282 698.8027,608.32835 C 698.97474,608.34678 699.01775,609.96886 698.80885,609.96886"
       id="path51"
       style="fill:#000000;fill-opacity:1;fill-rule:nonzero;stroke:none" /><path
       d="M 723.1585,572.07114 C 723.1585,579.49954 726.67302,584.91262 733.19821,587.91102 L 752.19008,562.91621 C 747.71706,558.68283 742.45144,556.16368 737.72037,556.16368 C 729.46864,556.16368 723.1585,562.24649 723.1585,572.07114 M 742.50059,618.58309 C 747.8891,618.58309 751.08411,614.5709 751.08411,608.1133 C 751.08411,602.17795 746.51279,595.70807 739.94458,593.12133 C 734.96161,599.837 733.66517,604.18098 733.66517,608.23004 C 733.66517,615.32051 737.35787,618.58309 742.50059,618.58309 M 780.95129,587.81885 L 757.69532,587.81885 C 757.48642,587.19214 757.49871,586.30122 757.67689,586.29508 C 763.62452,586.11689 766.21125,583.83124 764.04232,579.25377 C 762.38952,575.78227 760.63841,572.67329 758.42649,569.61959 L 741.50522,591.24119 C 751.60638,596.13816 756.81669,601.13343 756.81669,609.02264 C 756.81669,614.80439 750.96737,621.02851 742.03978,621.02851 C 733.07532,621.02851 725.21683,613.79673 725.21683,605.68018 C 725.21683,600.476 726.77747,596.6297 731.85876,589.67442 C 721.67159,586.26435 713.03279,578.0925 713.03279,568.73482 C 713.03279,558.20972 721.40739,550.71374 732.56535,550.71374 C 740.78635,550.71374 748.03656,555.04544 753.67698,561.24498 L 760.62612,551.77055 L 778.6472,551.77055 C 778.85611,551.77055 778.79466,553.38035 778.62877,553.38035 C 775.6058,553.49094 774.34009,553.8043 772.33706,554.75666 C 769.87937,555.92407 767.97464,557.8595 765.30804,561.00536 L 759.83351,568.01594 C 763.04081,572.16946 765.70127,576.7039 768.6751,580.81441 C 771.00376,584.00941 773.4799,585.51476 780.93287,586.14147 C 781.11104,586.15377 781.15406,587.19214 780.95129,587.81885"
       id="path53"
       style="fill:#000000;fill-opacity:1;fill-rule:nonzero;stroke:none" /><path
       d="M 862.38715,574.12947 C 862.38715,574.33222 860.97398,574.50426 860.86953,574.03731 C 858.16605,561.13438 848.57488,553.11615 839.81319,553.11615 C 823.13156,553.11615 812.50201,567.69643 812.50201,588.58688 C 812.50201,609.47119 821.79211,624.45085 838.07436,624.45085 C 847.95431,624.45085 857.65609,616.4449 860.35341,604.47591 C 860.39027,604.30387 861.91405,604.45133 861.87103,604.64795 L 861.2689,627.0806 C 861.22589,627.25877 859.68368,627.27721 859.6591,627.0806 C 859.27816,623.84257 857.23214,622.09146 853.98797,623.35718 C 849.30605,625.16973 843.99742,626.84097 838.47989,626.84097 C 817.4727,626.84097 799.5315,609.66165 799.5315,588.58688 C 799.5315,567.50597 817.06718,550.73218 838.47989,550.73218 C 847.89287,550.73218 855.17381,552.66147 861.29962,556.83341 L 862.38715,574.12947"
       id="path55"
       style="fill:#000000;fill-opacity:1;fill-rule:nonzero;stroke:none" /><path
       d="M 918.90809,580.86971 C 918.90809,564.44613 912.81299,552.9564 901.19421,552.9564 C 889.56316,552.9564 883.46806,564.44613 883.46806,580.86971 C 883.46806,597.28099 889.56316,608.77073 901.19421,608.77073 C 912.81299,608.77073 918.90809,597.28099 918.90809,580.86971 M 871.98446,580.86971 C 871.98446,564.50144 884.85666,550.95337 901.19421,550.95337 C 917.53178,550.95337 930.39783,564.50144 930.39783,580.86971 C 930.39783,597.24413 917.53178,610.7922 901.19421,610.7922 C 884.85666,610.7922 871.98446,597.24413 871.98446,580.86971"
       id="path57"
       style="fill:#000000;fill-opacity:1;fill-rule:nonzero;stroke:none" /><path
       d="M 941.4329,563.49378 C 944.85524,563.49378 947.571,560.73501 947.571,557.22664 C 947.571,553.71828 944.85524,550.95337 941.4329,550.95337 C 938.0044,550.95337 935.28865,553.71828 935.28865,557.22664 C 935.28865,560.73501 938.0044,563.49378 941.4329,563.49378"
       id="path59"
       style="fill:#231f20;fill-opacity:1;fill-rule:nonzero;stroke:none" /></g></svg>